<?xml version="1.0" standalone="no"?><!DOCTYPE svg PUBLIC "-//W3C//DTD SVG 1.1//EN" "http://www.w3.org/Graphics/SVG/1.1/DTD/svg11.dtd"><svg width="200" height="200" viewBox="0 0 200 200" version="1.1" xmlns="http://www.w3.org/2000/svg" xmlns:xlink="http://www.w3.org/1999/xlink"><defs><style type="text/css"><![CDATA[
@font-face { font-family: ifont; src: url(http://at.alicdn.com/t/font_1442373896_4754455.eot?#iefix) format(embedded-opentype), url(http://at.alicdn.com/t/font_1442373896_4754455.woff) format(woff), url(http://at.alicdn.com/t/font_1442373896_4754455.ttf) format(truetype), url(http://at.alicdn.com/t/font_1442373896_4754455.svg#ifont) format(svg); }

]]></style></defs><g class="transform-group"><g transform="scale(0.1953125, 0.1953125)"><path d="M512 0C229.376 0 0 229.376 0 512 0 794.624 229.376 1024 512 1024 794.624 1024 1024 794.624 1024 512 1024 229.376 794.624 0 512 0L512 0 512 0zM512 991.232C245.76 991.232 32.768 778.24 32.768 512 32.768 245.76 245.76 32.768 512 32.768S991.232 245.76 991.232 512C991.232 778.24 778.24 991.232 512 991.232L512 991.232 512 991.232zM733.184 503.808 393.216 307.2c-4.096-4.096-8.192-4.096-12.288 0C376.832 307.2 372.736 311.296 372.736 315.392l0 393.216c0 4.096 4.096 8.192 4.096 8.192 4.096 4.096 8.192 4.096 12.288 0l344.064-196.608c4.096-4.096 4.096-4.096 4.096-8.192C741.376 507.904 737.28 503.808 733.184 503.808L733.184 503.808 733.184 503.808zM733.184 503.808" fill="#534747"></path></g></g></svg>