<?xml version="1.0" standalone="no"?><!DOCTYPE svg PUBLIC "-//W3C//DTD SVG 1.1//EN" "http://www.w3.org/Graphics/SVG/1.1/DTD/svg11.dtd"><svg width="200" height="200" viewBox="0 0 200 200" version="1.1" xmlns="http://www.w3.org/2000/svg" xmlns:xlink="http://www.w3.org/1999/xlink"><defs><style type="text/css"><![CDATA[
@font-face { font-family: ifont; src: url(http://at.alicdn.com/t/font_1442373896_4754455.eot?#iefix) format(embedded-opentype), url(http://at.alicdn.com/t/font_1442373896_4754455.woff) format(woff), url(http://at.alicdn.com/t/font_1442373896_4754455.ttf) format(truetype), url(http://at.alicdn.com/t/font_1442373896_4754455.svg#ifont) format(svg); }

]]></style></defs><g class="transform-group"><g transform="scale(0.1953125, 0.1953125)"><path d="M375.467 307.2h546.133c40.96 0 68.267-27.307 68.267-68.267s-27.307-68.267-68.267-68.267h-546.133c-40.96 0-68.267 27.307-68.267 68.267s27.307 68.267 68.267 68.267zM921.6 443.733h-546.133c-40.96 0-68.267 27.307-68.267 68.267s27.307 68.267 68.267 68.267h546.133c40.96 0 68.267-27.307 68.267-68.267s-27.307-68.267-68.267-68.267zM921.6 716.8h-546.133c-40.96 0-68.267 27.307-68.267 68.267s27.307 68.267 68.267 68.267h546.133c40.96 0 68.267-27.307 68.267-68.267s-27.307-68.267-68.267-68.267zM102.4 170.667c-40.96 0-68.267 27.307-68.267 68.267s27.307 68.267 68.267 68.267 68.267-27.307 68.267-68.267c0-40.96-27.307-68.267-68.267-68.267zM102.4 443.733c-40.96 0-68.267 27.307-68.267 68.267s27.307 68.267 68.267 68.267 68.267-27.307 68.267-68.267c0-40.96-27.307-68.267-68.267-68.267zM102.4 716.8c-40.96 0-68.267 27.307-68.267 68.267s27.307 68.267 68.267 68.267 68.267-27.307 68.267-68.267c0-40.96-27.307-68.267-68.267-68.267z" fill="#ecf0f1"></path></g></g></svg>