<?xml version="1.0" standalone="no"?><!DOCTYPE svg PUBLIC "-//W3C//DTD SVG 1.1//EN" "http://www.w3.org/Graphics/SVG/1.1/DTD/svg11.dtd"><svg width="200" height="200" viewBox="0 0 200 200" version="1.1" xmlns="http://www.w3.org/2000/svg" xmlns:xlink="http://www.w3.org/1999/xlink"><defs><style type="text/css"><![CDATA[
@font-face { font-family: ifont; src: url(http://at.alicdn.com/t/font_1442373896_4754455.eot?#iefix) format(embedded-opentype), url(http://at.alicdn.com/t/font_1442373896_4754455.woff) format(woff), url(http://at.alicdn.com/t/font_1442373896_4754455.ttf) format(truetype), url(http://at.alicdn.com/t/font_1442373896_4754455.svg#ifont) format(svg); }

]]></style></defs><g class="transform-group"><g transform="scale(0.1953125, 0.1953125)"><path d="M438.336 583.68C431.104 588.928 429.632 598.976 433.6 605.248c3.776 6.4 12.608 7.168 19.776 1.792 6.976-5.504 9.664-15.168 5.888-21.568C455.488 579.2 446.72 577.408 438.336 583.68zM384.64 598.208C363.456 600.448 348.288 618.944 348.288 636.544c0 17.728 17.024 29.952 38.208 27.456 21.12-2.432 38.272-18.688 38.272-36.352C424.768 609.92 408.96 595.904 384.64 598.208zM512 0C229.248 0 0 229.248 0 512s229.248 512 512 512 512-229.248 512-512S794.752 0 512 0zM742.464 631.68c-46.528 98.688-199.744 146.752-313.28 137.856-107.904-8.448-246.656-44.352-260.992-174.912 0 0-7.552-59.136 49.792-135.68 0 0 82.432-115.2 178.496-148.096 96.128-32.704 107.328 22.656 107.328 55.36C498.752 393.984 489.152 410.304 525.248 399.104c0 0 94.528-43.84 133.44-4.928 31.36 31.36 5.184 74.56 5.184 74.56S650.88 483.136 677.632 488.32C704.448 493.696 788.928 532.8 742.464 631.68zM649.216 359.04c-10.304 0-18.56-8.32-18.56-18.56 0-10.368 8.256-18.688 18.56-18.688 0 0 115.84-21.44 102.016 103.04 0 0.768-0.064 1.344-0.256 1.984-1.28 8.768-9.024 15.552-18.176 15.552-10.304 0-18.688-8.256-18.752-18.496C714.048 423.872 732.416 340.672 649.216 359.04zM845.056 447.936l-0.192 0c-3.072 21.312-13.504 28.032-25.984 28.032-14.912 0-26.944-4.096-26.944-19.008 0-12.928 5.376-26.048 5.376-26.048 1.536-5.376 14.144-39.232-8.32-89.728-41.216-69.184-124.16-70.272-133.952-66.304-9.856 3.904-24.448 5.76-24.448 5.76-14.976 0-27.008-12.352-27.008-27.2 0-12.416 8.32-23.296 19.712-26.496 0 0 0.256-1.088 0.64-1.152 0.832-0.192 1.664-2.368 2.56-2.432 11.584-2.24 52.736-12.928 92.8-3.584C790.976 236.544 889.344 320 845.056 447.936zM437.568 465.344C324.864 470.528 233.728 530.88 233.728 606.208c0 75.2 91.136 131.712 203.84 126.464 112.832-5.12 204.096-75.712 204.096-150.912C641.664 506.624 550.4 460.16 437.568 465.344zM514.432 654.784c-34.496 44.544-102.848 66.304-169.152 30.4C313.728 668.032 314.88 634.432 314.88 634.432s-13.12-106.24 100.224-119.488C528.64 501.76 548.928 610.176 514.432 654.784z" fill="#f4c600"></path></g></g></svg>