<?xml version="1.0" standalone="no"?><!DOCTYPE svg PUBLIC "-//W3C//DTD SVG 1.1//EN" "http://www.w3.org/Graphics/SVG/1.1/DTD/svg11.dtd"><svg width="200" height="200" viewBox="0 0 200 200" version="1.1" xmlns="http://www.w3.org/2000/svg" xmlns:xlink="http://www.w3.org/1999/xlink"><defs><style type="text/css"><![CDATA[
@font-face { font-family: ifont; src: url(http://at.alicdn.com/t/font_1442373896_4754455.eot?#iefix) format(embedded-opentype), url(http://at.alicdn.com/t/font_1442373896_4754455.woff) format(woff), url(http://at.alicdn.com/t/font_1442373896_4754455.ttf) format(truetype), url(http://at.alicdn.com/t/font_1442373896_4754455.svg#ifont) format(svg); }

]]></style></defs><g class="transform-group"><g transform="scale(0.1953125, 0.1953125)"><path d="M636.97456 227.644448C647.621824 227.644448 658.152736 228.414816 668.596352 229.629632 640.17456 94.755552 498.618176-5.45184 337.018176-5.45184 156.363648-5.45184 8.378176 119.970368 8.378176 279.229632 8.378176 371.140736 57.6 446.637024 139.898176 505.185184L107.02544 605.896288 221.90544 547.2C263.010912 555.496288 296 564.029632 337.018176 564.029632 347.345472 564.029632 357.556352 563.496288 367.709088 562.696288 361.28 540.296288 357.556352 516.859264 357.556352 492.562976 357.556352 346.311104 480.843648 227.644448 636.97456 227.644448L636.97456 227.644448ZM460.247264 136.888896C485.003648 136.888896 501.381824 153.45184 501.381824 178.637024 501.381824 203.733344 485.003648 220.533344 460.247264 220.533344 435.636352 220.533344 410.909088 203.733344 410.909088 178.637024 410.909088 153.45184 435.636352 136.888896 460.247264 136.888896L460.247264 136.888896ZM230.25456 220.533344C205.61456 220.533344 180.770912 203.733344 180.770912 178.637024 180.770912 153.45184 205.61456 136.888896 230.25456 136.888896 254.89456 136.888896 271.272736 153.45184 271.272736 178.637024 271.272736 203.733344 254.89456 220.533344 230.25456 220.533344L230.25456 220.533344ZM936.901824 488.533344C936.901824 354.696288 805.44 245.629632 657.745472 245.629632 501.381824 245.629632 378.24 354.696288 378.24 488.533344 378.24 622.577792 501.381824 731.437024 657.745472 731.437024 690.472736 731.437024 723.490912 723.022208 756.363648 714.637024L846.516352 764.918528 821.789088 681.27408C887.767264 630.844448 936.901824 564.029632 936.901824 488.533344L936.901824 488.533344ZM567.127264 446.637024C550.778176 446.637024 534.25456 430.07408 534.25456 413.155552 534.25456 396.47408 550.778176 379.67408 567.127264 379.67408 592 379.67408 608.261824 396.47408 608.261824 413.155552 608.261824 430.07408 592 446.637024 567.127264 446.637024L567.127264 446.637024ZM747.898176 446.637024C731.636352 446.637024 715.258176 430.07408 715.258176 413.155552 715.258176 396.47408 731.636352 379.67408 747.898176 379.67408 772.538176 379.67408 789.032736 396.47408 789.032736 413.155552 789.032736 430.07408 772.538176 446.637024 747.898176 446.637024L747.898176 446.637024Z" fill="#11cd6e"></path></g></g></svg>