<?xml version="1.0" standalone="no"?><!DOCTYPE svg PUBLIC "-//W3C//DTD SVG 1.1//EN" "http://www.w3.org/Graphics/SVG/1.1/DTD/svg11.dtd"><svg width="200" height="200" viewBox="0 0 200 200" version="1.1" xmlns="http://www.w3.org/2000/svg" xmlns:xlink="http://www.w3.org/1999/xlink"><defs><style type="text/css"><![CDATA[
@font-face { font-family: ifont; src: url(http://at.alicdn.com/t/font_1442373896_4754455.eot?#iefix) format(embedded-opentype), url(http://at.alicdn.com/t/font_1442373896_4754455.woff) format(woff), url(http://at.alicdn.com/t/font_1442373896_4754455.ttf) format(truetype), url(http://at.alicdn.com/t/font_1442373896_4754455.svg#ifont) format(svg); }

]]></style></defs><g class="transform-group"><g transform="scale(0.1953125, 0.1953125)"><path d="M512 862.823134c173.33886 0 314.370921-141.03206 314.370921-314.370921 0-173.337837-141.03206-314.369897-314.370921-314.369897s-314.370921 141.03206-314.370921 314.369897C197.629079 721.791074 338.657047 862.823134 512 862.823134L512 862.823134 512 862.823134zM512 260.347516c158.860101 0 288.104697 129.248689 288.104697 288.104697 0 158.861124-129.248689 288.104697-288.104697 288.104697S223.895303 707.309244 223.895303 548.452213C223.895303 389.596206 353.143992 260.347516 512 260.347516L512 260.347516 512 260.347516zM512 260.347516M687.253466 544.685423c0-3.827165-1.671059-7.246031-4.26514-9.673313L537.602098 409.462672c-2.311649-1.965771-5.26798-3.198855-8.529257-3.198855-7.29822 0-13.183254 5.897314-13.183254 13.181207l0 55.579853C404.75751 492.960365 326.514495 574.659085 318.881654 679.510108c0.360204 4.445242 4.00829 7.979742 8.531304 7.979742 1.74576 0 3.39226-0.527003 4.753257-1.426489 0.026606-0.026606 0 0.075725 0.026606 0.075725 19.193131-13.630439 35.792181-23.793916 48.744167-30.628578 31.426757-17.292851 80.223113-31.256888 134.954645-36.872792l0 51.494815c0 7.297197 5.882987 13.181207 13.181207 13.181207 3.108804 0 5.90857-1.168616 8.1711-2.980891l145.410787-125.572974c0-0.014326-0.051165-0.026606-0.024559-0.038886C685.455517 552.317241 687.253466 548.705993 687.253466 544.685423L687.253466 544.685423zM542.254048 641.186268l0-44.153616c0-3.768837-3.203972-6.742565-6.962575-6.463202l-7.195889 0.535189c-57.275471 4.26514-133.51383 20.928658-176.605254 51.762921 20.992103-77.18901 87.776136-132.421962 179.124633-143.304823l5.343705-0.636496c3.590781-0.427742 6.29538-3.473101 6.29538-7.089465l0-38.165228c0-2.103918 2.471284-3.234671 4.063549-1.859347l107.585297 92.937692L542.254048 641.186268 542.254048 641.186268zM542.254048 641.186268" fill="#ecf0f1"></path></g></g></svg>